{"title":"The.Head.And.The.Heart.iHeart.9-2-2016.HDTV.x264-TheRealTTL","uid":15775753,"size":510837072,"categoryP":"video","categoryS":"tv_shows","magnet":"?xt=urn:btih:2f87eaa3323fb142e131366172144311d3da4e61&amp;dn=The.Head.And.The.Heart.iHeart.9-2-2016.HDTV.x264-TheRealTTL&amp;tr=udp%3A%2F%2Ftracker.leechers-paradise.org%3A6969&amp;tr=udp%3A%2F%2Fzer0day.ch%3A1337&amp;tr=udp%3A%2F%2Fopen.demonii.com%3A1337&amp;tr=udp%3A%2F%2Ftracker.coppersurfer.tk%3A6969&amp;tr=udp%3A%2F%2Fexodus.desync.com%3A6969","seeders":1,"leechers":0,"uploader":"thetorrentlord","files":3,"time":1473227011,"description":"Live album release concert for iHeart.\t\t\t\t\t\t\t\t\t\t\t\t\t\t\t\t\t\t\t\t\t\t\tGrab the sample and if you like it go for it.\t\t\t\t\t\t\t\t\t\t\t\t\t\t\t\t\t\t\t\t\t\tEnjoy and please share!!!\t\t\t\t\t\t\t\t\t\t\t\t\t\t\t\t\t\t\t\t\t\t\t\t\t\t\t\t\t\t\t\tThe.Head.And.The.Heart.iHeart.Album.Release.Party.9-2-2016.HDTV.x264-TheRealTTL.mp4\r\nFormat                           : MPEG-4\r\nFormat profile                   : Base Media / Version 2\r\nCodec ID                         : mp42\r\nFile size                        : 478 MiB\r\nDuration                         : 57mn 45s\r\nOverall bit rate mode            : Variable\r\nOverall bit rate                 : 1 156 Kbps\r\nEncoded date                     : UTC 2036-02-06 06:28:16\r\nTagged date                      : UTC 2036-02-06 06:28:16\r\nWriting application              : HandBrake 0.10.2 2015060900\r\n\r\nVideo\r\nID                               : 1\r\nFormat                           : AVC\r\nFormat/Info                      : Advanced Video Codec\r\nFormat profile                   :   \r\nFormat settings, CABAC           : Yes\r\nFormat settings, ReFrames        : 4 frames\r\nCodec ID                         : avc1\r\nCodec ID/Info                    : Advanced Video Coding\r\nDuration                         : 57mn 45s\r\nBit rate                         : 1 021 Kbps\r\nWidth                            : 720 pixels\r\nHeight                           : 406 pixels\r\nDisplay aspect ratio             : 16:9\r\nFrame rate mode                  : Constant\r\nFrame rate                       : 29.970 fps\r\nColor space                      : YUV\r\nChroma subsampling               : 4:2:0\r\nBit depth                        : 8 bits\r\nScan type                        : Progressive\r\nBits/(Pixel*Frame)               : 0.117\r\nStream size                      : 422 MiB (88%)\r\nWriting library                  : x264 core 142 r2479 \r\n\r\nAudio                            : English\r\nID                               : 2\r\nFormat                           : AAC\r\nFormat/Info                      : Advanced Audio Codec\r\nFormat profile                   : LC\r\nCodec ID                         : 40\r\nDuration                         : 57mn 45s\r\nBit rate mode                    : Variable\r\nBit rate                         : 128 Kbps\r\nChannel(s)                       : 2 channels\r\nChannel positions                : Front: L R\r\nSampling rate                    : 48.0 KHz\r\nCompression mode                 : Lossy\r\nStream size                      : 53.0 MiB (11%)\r\nTitle                            : Stereo\r\nEncoded date                     : UTC 2036-02-06 06:28:16\r\nTagged date                      : UTC 2036-02-06 06:28:16","torrent":{"xt":"urn:btih:2f87eaa3323fb142e131366172144311d3da4e61","amp;dn":"The.Head.And.The.Heart.iHeart.9-2-2016.HDTV.x264-TheRealTTL","amp;tr":["udp%3A%2F%2Ftracker.leechers-paradise.org%3A6969","udp%3A%2F%2Fzer0day.ch%3A1337","udp%3A%2F%2Fopen.demonii.com%3A1337","udp%3A%2F%2Ftracker.coppersurfer.tk%3A6969","udp%3A%2F%2Fexodus.desync.com%3A6969"],"infoHash":"2f87eaa3323fb142e131366172144311d3da4e61","infoHashBuffer":{"type":"Buffer","data":[47,135,234,163,50,63,177,66,225,49,54,97,114,20,67,17,211,218,78,97]},"announce":[],"urlList":[]}}